<svg width="612" height="612" viewBox="0 0 612 612" fill="none" xmlns="http://www.w3.org/2000/svg">
<path d="M248.542 343.929H78.879C68.427 343.929 59.962 352.357 59.962 362.771C59.962 373.166 68.427 381.611 78.879 381.611H204.23L0 584.979L26.751 611.618L230.77 408.438L230.178 532.26C230.178 542.655 238.643 551.1 249.095 551.1C259.547 551.1 268.012 542.674 268.012 532.26V362.75C268.012 357.17 265.7 352.66 262.031 349.564C258.573 346.126 253.815 343.929 248.542 343.929ZM533.141 230.388H407.79L612 27.0188L585.248 0.381836L381.248 203.56L381.841 79.7378C381.841 69.3428 373.376 60.8968 362.924 60.8968C352.472 60.8968 344.007 69.3238 344.007 79.7378V249.248C344.007 254.828 346.319 259.337 349.968 262.414C353.407 265.892 358.147 268.089 363.44 268.089H533.102C543.554 268.089 552.02 259.662 552.02 249.248C552.038 238.834 543.573 230.388 533.141 230.388Z" fill="white"/>
</svg>
