<svg  id="closeSvg"  width="24" height="24" viewBox="0 0 512 512" fill="none" xmlns="http://www.w3.org/2000/svg">
<path d="M407 46H105C47.1016 46 0 93.1016 0 151V313.172C0 359.371 30.332 399.609 74.2852 412.488L124.996 463.203C127.812 466.016 131.625 467.598 135.605 467.598C139.582 467.598 143.398 466.016 146.211 463.203L192.73 416.68H407C464.898 416.68 512 369.578 512 311.68V151C512 93.1016 464.898 46 407 46ZM482 311.68C482 353.035 448.355 386.68 407 386.68H186.52C182.543 386.68 178.727 388.262 175.914 391.074L135.605 431.383L92.6758 388.453C90.75 386.527 88.3359 385.16 85.6914 384.504C52.9023 376.344 30 347.012 30 313.172V151C30 109.645 63.6445 76 105 76H407C448.355 76 482 109.645 482 151V311.68Z" fill="white"/>
<path d="M351.242 189.828H160.758C152.473 189.828 145.758 196.547 145.758 204.828C145.758 213.113 152.473 219.828 160.758 219.828H351.242C359.527 219.828 366.242 213.113 366.242 204.828C366.242 196.547 359.527 189.828 351.242 189.828Z" fill="white"/>
<path d="M351.242 242.852H160.758C152.473 242.852 145.758 249.566 145.758 257.852C145.758 266.137 152.473 272.852 160.758 272.852H351.242C359.527 272.852 366.242 266.137 366.242 257.852C366.242 249.566 359.527 242.852 351.242 242.852Z" fill="white"/>
</svg>
